<?xml version="1.0" standalone="no"?>
<!DOCTYPE svg PUBLIC "-//W3C//DTD SVG 20010904//EN"
 "http://www.w3.org/TR/2001/REC-SVG-20010904/DTD/svg10.dtd">
<svg version="1.0" xmlns="http://www.w3.org/2000/svg"
 width="425.000000pt" height="254.000000pt" viewBox="0 0 425.000000 254.000000"
 preserveAspectRatio="xMidYMid meet">

<g transform="translate(0.000000,254.000000) scale(0.100000,-0.100000)"
fill="#000000" stroke="none">
<path d="M1608 1795 c-220 -31 -516 -101 -823 -196 -93 -28 -201 -60 -240 -71
-75 -21 -179 -28 -207 -14 -16 7 -18 1 -18 -70 0 -69 -3 -82 -30 -123 -27 -43
-67 -167 -57 -177 2 -2 21 22 42 53 84 128 225 233 361 268 76 20 242 20 319
-1 109 -28 201 -80 280 -157 40 -40 82 -91 94 -114 l21 -43 598 1 c328 1 590
3 582 5 -8 2 -150 13 -315 24 -861 59 -794 51 -828 105 -60 94 -202 200 -322
240 -19 6 -19 7 -2 16 39 22 267 91 390 118 182 41 305 54 492 54 270 0 453
-38 660 -138 88 -42 91 -43 145 -33 30 6 59 14 63 18 9 8 -68 57 -152 100 -82
41 -227 88 -357 116 -116 24 -153 27 -364 30 -161 2 -266 -1 -332 -11z"/>
<path d="M2800 1510 c-384 -54 -590 -80 -711 -91 -140 -12 -342 -7 -418 11
-24 6 -45 9 -47 7 -8 -8 225 -67 305 -78 116 -16 352 -6 478 19 165 33 294 44
523 45 308 0 511 -30 715 -104 l90 -33 -40 -8 c-22 -4 -58 -11 -80 -14 -32 -6
-35 -8 -16 -12 40 -6 183 -62 220 -85 19 -11 50 -34 68 -50 39 -34 38 -35 14
65 -21 87 -25 92 -144 163 -102 61 -225 110 -367 147 -155 40 -386 47 -590 18z"/>
<path d="M633 1396 c-89 -22 -164 -66 -238 -140 -39 -39 -80 -88 -92 -108
l-22 -38 74 0 c65 0 75 2 75 18 0 33 59 120 116 171 37 32 82 60 126 77 37 15
68 29 68 31 0 7 -57 1 -107 -11z"/>
<path d="M1020 1371 c60 -33 118 -89 161 -157 41 -63 43 -64 86 -64 l44 0 -20
29 c-36 51 -135 135 -196 167 -68 36 -134 58 -75 25z"/>
<path d="M705 1347 c-131 -43 -246 -187 -244 -305 l0 -37 20 52 c29 74 97 146
177 185 60 30 75 33 152 33 70 0 95 -5 140 -26 95 -44 166 -122 197 -213 l13
-41 -4 57 c-9 112 -81 215 -191 271 -49 25 -74 31 -140 34 -48 2 -96 -2 -120
-10z"/>
<path d="M3010 1351 c-142 -47 -241 -160 -259 -298 -9 -61 -2 -59 23 9 25 69
95 141 174 180 59 30 76 33 152 33 76 0 93 -3 152 -33 80 -39 148 -111 177
-185 l20 -52 0 37 c2 100 -88 230 -196 283 -46 23 -74 29 -138 31 -44 2 -91 0
-105 -5z"/>
<path d="M3435 1217 c9 -12 28 -48 43 -79 l27 -58 165 0 165 0 -25 20 c-39 31
-154 75 -278 109 -112 30 -114 30 -97 8z"/>
</g>
</svg>
